# xmcd CD database file
#
# Track frame offsets:
#	150
#	15380
#	27275
#	40315
#	53825
#	67060
#	79987
#	93672
#	104000
#	118067
#	131937
#	145127
#	158152
#	170395
#	183785
#	197272
#	210832
#	224165
#	238070
#	252057
#	265390
#	276177
#	291027
#	302450
#
# Disc length: 4266 seconds
#
# Revision: 0
# Processed by: cddbd v1.5.1PL2 Copyright (c) Steve Scherf et al.
# Submitted via: CDex 1.51
#
DISCID=6110a818
DTITLE=VariusArtist - BeatUK
DYEAR=1995
DGENRE=Other
TTITLE0=SaturdayNight[AlbumVer.]_Whigfield
TTITLE1=TotalEclipseOfTheHeart[NewRadioEdit]_NickiFrench
TTITLE2=SweetDreams[RadioEdit]_DJ.ScottFt.LornaB
TTITLE3=U Sure Do[RadioEdit]_STRIKE
TTITLE4=SetYouFree[RadioEdit]_N-TRANCE
TTITLE5=Don'tGiveMeYourLife[OriginalMix]_AlexParty
TTITLE6=LoveSoStrong[SingleVer.]_SecretLife
TTITLE7=Messages[AlbumVer.]_DejaVu
TTITLE8=It'sAMan'sMan'sMan'sWorld[SleazeSistersEdit]_JeanieTracy&BobbyWomack
TTITLE9=IMustBeFree[LoveToInfinity'sClassicParadiceEdit]_KymSims
TTITLE10=SpendTheDay[Original7']_UrbanCookieCollective
TTITLE11=SaveItTillTheMorningAfter[7'AoriginalMix]_ShutUp&Dance
TTITLE12=SkyHigh[RadioEdit]_Newton
TTITLE13=SexOnTheStreets[RadioEdit]_Pizzaman
TTITLE14=Conway[AlbumVer.]_Reel2Real
TTITLE15=Don'tStop[RadioEdit]_TheOuthereBrothers
TTITLE16=OriginalNuttah[AlbumVer.]_UKApachi&ShyFX
TTITLE17=IfIGiveYouMyNumber?[AlbumVer.]_PJ&Duncan
TTITLE18=AxelF[RadioShortStab]_Clock
TTITLE19=NotAnyone[AlbumVer.]_BlackBox
TTITLE20=ThinkOfYou[AlbumVer.]_Whigfield
TTITLE21=DidYouEverReallyLoveMe?[AlbumVer.]_NickiFrench
TTITLE22=AbsoluteE-Sensual[FKBEdit]_JakiGraham
TTITLE23=DiveToParadise[FKB7"Edit]_Eurogroove
EXTD=YEAR: 1995
EXTT0=
EXTT1=
EXTT2=
EXTT3=
EXTT4=
EXTT5=
EXTT6=
EXTT7=
EXTT8=
EXTT9=
EXTT10=
EXTT11=
EXTT12=
EXTT13=
EXTT14=
EXTT15=
EXTT16=
EXTT17=
EXTT18=
EXTT19=
EXTT20=
EXTT21=
EXTT22=
EXTT23=
PLAYORDER=
